<svg width="15" height="10" viewBox="0 0 15 10" fill="none" xmlns="http://www.w3.org/2000/svg">
<mask id="path-1-inside-1_3_1440" fill="white">
<path d="M15 0H0L7.82609 10L15 0Z"/>
</mask>
<path d="M0 0V-14H-28.7342L-11.0251 8.62832L0 0ZM15 0L26.3755 8.16071L42.2734 -14H15V0ZM7.82609 10L-3.19898 18.6283L8.31327 33.3384L19.2016 18.1607L7.82609 10ZM0 14H15V-14H0V14ZM3.62447 -8.16071L-3.54945 1.83929L19.2016 18.1607L26.3755 8.16071L3.62447 -8.16071ZM18.8512 1.37168L11.0251 -8.62832L-11.0251 8.62832L-3.19898 18.6283L18.8512 1.37168Z" fill="white" mask="url(#path-1-inside-1_3_1440)"/>
</svg>
