<svg width="48" height="48" viewBox="0 0 48 48" fill="none" xmlns="http://www.w3.org/2000/svg">
<path d="M21.05 33.1L35.2 18.95L32.9 16.7L21.05 28.55L15.05 22.55L12.8 24.8L21.05 33.1ZM24 44C21.1667 44 18.5333 43.4917 16.1 42.475C13.6667 41.4583 11.55 40.05 9.75 38.25C7.95 36.45 6.54167 34.3333 5.525 31.9C4.50833 29.4667 4 26.8333 4 24C4 21.2 4.50833 18.5833 5.525 16.15C6.54167 13.7167 7.95 11.6 9.75 9.8C11.55 8 13.6667 6.58333 16.1 5.55C18.5333 4.51667 21.1667 4 24 4C26.8 4 29.4167 4.51667 31.85 5.55C34.2833 6.58333 36.4 8 38.2 9.8C40 11.6 41.4167 13.7167 42.45 16.15C43.4833 18.5833 44 21.2 44 24C44 26.8333 43.4833 29.4667 42.45 31.9C41.4167 34.3333 40 36.45 38.2 38.25C36.4 40.05 34.2833 41.4583 31.85 42.475C29.4167 43.4917 26.8 44 24 44ZM24 41C28.8333 41 32.875 39.375 36.125 36.125C39.375 32.875 41 28.8333 41 24C41 19.1667 39.375 15.125 36.125 11.875C32.875 8.625 28.8333 7 24 7C19.1667 7 15.125 8.625 11.875 11.875C8.625 15.125 7 19.1667 7 24C7 28.8333 8.625 32.875 11.875 36.125C15.125 39.375 19.1667 41 24 41Z" fill="#FDC430"/>
</svg>
