<svg width="30" height="30" viewBox="0 0 30 30" fill="none" xmlns="http://www.w3.org/2000/svg">
<path d="M13.1562 20.6875L22 11.8438L20.5625 10.4375L13.1562 17.8438L9.40625 14.0938L8 15.5L13.1562 20.6875ZM15 27.5C13.2292 27.5 11.5833 27.1823 10.0625 26.5469C8.54167 25.9115 7.21875 25.0312 6.09375 23.9062C4.96875 22.7812 4.08854 21.4583 3.45313 19.9375C2.81771 18.4167 2.5 16.7708 2.5 15C2.5 13.25 2.81771 11.6146 3.45313 10.0938C4.08854 8.57292 4.96875 7.25 6.09375 6.125C7.21875 5 8.54167 4.11458 10.0625 3.46875C11.5833 2.82292 13.2292 2.5 15 2.5C16.75 2.5 18.3854 2.82292 19.9062 3.46875C21.4271 4.11458 22.75 5 23.875 6.125C25 7.25 25.8854 8.57292 26.5312 10.0938C27.1771 11.6146 27.5 13.25 27.5 15C27.5 16.7708 27.1771 18.4167 26.5312 19.9375C25.8854 21.4583 25 22.7812 23.875 23.9062C22.75 25.0312 21.4271 25.9115 19.9062 26.5469C18.3854 27.1823 16.75 27.5 15 27.5ZM15 25.625C18.0208 25.625 20.5469 24.6094 22.5781 22.5781C24.6094 20.5469 25.625 18.0208 25.625 15C25.625 11.9792 24.6094 9.45312 22.5781 7.42188C20.5469 5.39062 18.0208 4.375 15 4.375C11.9792 4.375 9.45312 5.39062 7.42188 7.42188C5.39062 9.45312 4.375 11.9792 4.375 15C4.375 18.0208 5.39062 20.5469 7.42188 22.5781C9.45312 24.6094 11.9792 25.625 15 25.625Z" fill="#57C224"/>
</svg>
