<svg width="30" height="30" viewBox="0 0 30 30" fill="none" xmlns="http://www.w3.org/2000/svg">
<path d="M14.1562 16.4688H16.0312V8.5625H14.1562V16.4688ZM15 21.25C15.2917 21.25 15.5365 21.151 15.7344 20.9531C15.9323 20.7552 16.0312 20.5104 16.0312 20.2188C16.0312 19.9271 15.9323 19.6823 15.7344 19.4844C15.5365 19.2865 15.2917 19.1875 15 19.1875C14.7083 19.1875 14.4635 19.2865 14.2656 19.4844C14.0677 19.6823 13.9688 19.9271 13.9688 20.2188C13.9688 20.5104 14.0677 20.7552 14.2656 20.9531C14.4635 21.151 14.7083 21.25 15 21.25ZM15 27.5C13.2292 27.5 11.5833 27.1823 10.0625 26.5469C8.54167 25.9115 7.21875 25.0312 6.09375 23.9062C4.96875 22.7812 4.08854 21.4583 3.45313 19.9375C2.81771 18.4167 2.5 16.7708 2.5 15C2.5 13.25 2.81771 11.6146 3.45313 10.0938C4.08854 8.57292 4.96875 7.25 6.09375 6.125C7.21875 5 8.54167 4.11458 10.0625 3.46875C11.5833 2.82292 13.2292 2.5 15 2.5C16.75 2.5 18.3854 2.82292 19.9062 3.46875C21.4271 4.11458 22.75 5 23.875 6.125C25 7.25 25.8854 8.57292 26.5312 10.0938C27.1771 11.6146 27.5 13.25 27.5 15C27.5 16.7708 27.1771 18.4167 26.5312 19.9375C25.8854 21.4583 25 22.7812 23.875 23.9062C22.75 25.0312 21.4271 25.9115 19.9062 26.5469C18.3854 27.1823 16.75 27.5 15 27.5ZM15 25.625C17.9167 25.625 20.4167 24.5833 22.5 22.5C24.5833 20.4167 25.625 17.9167 25.625 15C25.625 12.0833 24.5833 9.58333 22.5 7.5C20.4167 5.41667 17.9167 4.375 15 4.375C12.0833 4.375 9.58333 5.41667 7.5 7.5C5.41667 9.58333 4.375 12.0833 4.375 15C4.375 17.9167 5.41667 20.4167 7.5 22.5C9.58333 24.5833 12.0833 25.625 15 25.625Z" fill="#E63333"/>
</svg>
