<svg width="30" height="30" viewBox="0 0 30 30" fill="none" xmlns="http://www.w3.org/2000/svg">
<path d="M15 19.6875C16.4792 19.6875 17.7344 19.1719 18.7656 18.1406C19.7969 17.1094 20.3125 15.8542 20.3125 14.375C20.3125 12.8958 19.7969 11.6406 18.7656 10.6094C17.7344 9.57813 16.4792 9.0625 15 9.0625C13.5208 9.0625 12.2656 9.57813 11.2344 10.6094C10.2031 11.6406 9.6875 12.8958 9.6875 14.375C9.6875 15.8542 10.2031 17.1094 11.2344 18.1406C12.2656 19.1719 13.5208 19.6875 15 19.6875ZM15 17.875C14.0208 17.875 13.1927 17.5365 12.5156 16.8594C11.8385 16.1823 11.5 15.3542 11.5 14.375C11.5 13.3958 11.8385 12.5677 12.5156 11.8906C13.1927 11.2135 14.0208 10.875 15 10.875C15.9792 10.875 16.8073 11.2135 17.4844 11.8906C18.1615 12.5677 18.5 13.3958 18.5 14.375C18.5 15.3542 18.1615 16.1823 17.4844 16.8594C16.8073 17.5365 15.9792 17.875 15 17.875ZM15 23.75C11.9583 23.75 9.20833 22.8854 6.75 21.1562C4.29167 19.4271 2.45833 17.1667 1.25 14.375C2.45833 11.5833 4.29167 9.32292 6.75 7.59375C9.20833 5.86458 11.9583 5 15 5C18.0417 5 20.7917 5.86458 23.25 7.59375C25.7083 9.32292 27.5417 11.5833 28.75 14.375C27.5417 17.1667 25.7083 19.4271 23.25 21.1562C20.7917 22.8854 18.0417 23.75 15 23.75ZM15 21.875C17.5208 21.875 19.8385 21.1927 21.9531 19.8281C24.0677 18.4635 25.6771 16.6458 26.7812 14.375C25.6771 12.1042 24.0677 10.2865 21.9531 8.92187C19.8385 7.55729 17.5208 6.875 15 6.875C12.4792 6.875 10.1615 7.55729 8.04688 8.92187C5.93229 10.2865 4.3125 12.1042 3.1875 14.375C4.3125 16.6458 5.93229 18.4635 8.04688 19.8281C10.1615 21.1927 12.4792 21.875 15 21.875Z" fill="white" fill-opacity="0.45"/>
</svg>
