<svg width="62" height="62" viewBox="0 0 62 62" fill="none" xmlns="http://www.w3.org/2000/svg">
<path d="M22.3458 58.125L17.4374 49.7292L7.68534 47.7271L8.78325 38.2333L2.58325 31L8.78325 23.8313L7.68534 14.3375L17.4374 12.3354L22.3458 3.875L30.9999 7.87917L39.6541 3.875L44.627 12.3354L54.3145 14.3375L53.2166 23.8313L59.4166 31L53.2166 38.2333L54.3145 47.7271L44.627 49.7292L39.6541 58.125L30.9999 54.1208L22.3458 58.125ZM28.2228 39.5896L42.8833 25.0583L39.977 22.4104L28.2228 34.0354L22.0874 27.6417L19.1166 30.5479L28.2228 39.5896ZM24.0895 53.0229L30.9999 50.1167L38.1041 53.0229L42.4312 46.5646L49.9874 44.6271L49.2124 36.9417L54.4437 31L49.2124 24.9292L49.9874 17.2437L42.4312 15.4354L37.9749 8.97708L30.9999 11.8833L23.8958 8.97708L19.5687 15.4354L12.0124 17.2437L12.7874 24.9292L7.55617 31L12.7874 36.9417L12.0124 44.7563L19.5687 46.5646L24.0895 53.0229Z" fill="black"/>
</svg>
