<svg width="250" height="250" viewBox="0 0 250 250" fill="none" xmlns="http://www.w3.org/2000/svg">
<rect width="250" height="250" fill="#282723"/>
<path d="M102.635 195.313L89.9503 173.549L64.7479 168.359L67.5852 143.75L51.5625 125L67.5852 106.417L64.7479 81.808L89.9503 76.6183L102.635 54.6875L125 65.067L147.365 54.6875L160.217 76.6183L185.252 81.808L182.415 106.417L198.438 125L182.415 143.75L185.252 168.359L160.217 173.549L147.365 195.313L125 184.933L102.635 195.313ZM117.823 147.266L155.71 109.598L148.2 102.734L117.823 132.868L101.967 116.295L94.2898 123.828L117.823 147.266ZM107.141 182.087L125 174.554L143.359 182.087L154.542 165.346L174.07 160.324L172.067 140.402L185.586 125L172.067 109.263L174.07 89.3415L154.542 84.654L143.026 67.9129L125 75.4464L106.641 67.9129L95.4581 84.654L75.9304 89.3415L77.9332 109.263L64.4141 125L77.9332 140.402L75.9304 160.658L95.4581 165.346L107.141 182.087Z" fill="#FBBC05"/>
</svg>
